<mxfile host="app.diagrams.net" modified="2024-01-11T17:18:13.753Z" agent="Mozilla/5.0 (Windows NT 10.0; Win64; x64) AppleWebKit/537.36 (KHTML, like Gecko) Chrome/119.0.0.0 Safari/537.36 OPR/105.0.0.0" etag="8Dil7bl0ex2v--kd3OW3" version="22.1.18" type="github">
  <diagram name="Страница — 1" id="d9BvL7pK46jfuOrEVnU3">
    <mxGraphModel dx="1393" dy="766" grid="1" gridSize="10" guides="1" tooltips="1" connect="1" arrows="1" fold="1" page="1" pageScale="1" pageWidth="827" pageHeight="1169" math="0" shadow="0">
      <root>
        <mxCell id="0" />
        <mxCell id="1" parent="0" />
        <mxCell id="m9NPIkg8LEaH-LfBP8oI-2" style="edgeStyle=orthogonalEdgeStyle;rounded=0;orthogonalLoop=1;jettySize=auto;html=1;" edge="1" parent="1" source="m9NPIkg8LEaH-LfBP8oI-1" target="m9NPIkg8LEaH-LfBP8oI-3">
          <mxGeometry relative="1" as="geometry">
            <mxPoint x="410" y="250" as="targetPoint" />
          </mxGeometry>
        </mxCell>
        <mxCell id="m9NPIkg8LEaH-LfBP8oI-1" value="Старт программы" style="rounded=0;whiteSpace=wrap;html=1;" vertex="1" parent="1">
          <mxGeometry x="350" y="140" width="120" height="60" as="geometry" />
        </mxCell>
        <mxCell id="m9NPIkg8LEaH-LfBP8oI-4" style="edgeStyle=orthogonalEdgeStyle;rounded=0;orthogonalLoop=1;jettySize=auto;html=1;" edge="1" parent="1" source="m9NPIkg8LEaH-LfBP8oI-3" target="m9NPIkg8LEaH-LfBP8oI-5">
          <mxGeometry relative="1" as="geometry">
            <mxPoint x="410" y="370" as="targetPoint" />
          </mxGeometry>
        </mxCell>
        <mxCell id="m9NPIkg8LEaH-LfBP8oI-3" value="Введення виразу" style="rounded=0;whiteSpace=wrap;html=1;" vertex="1" parent="1">
          <mxGeometry x="350" y="240" width="120" height="60" as="geometry" />
        </mxCell>
        <mxCell id="m9NPIkg8LEaH-LfBP8oI-6" style="edgeStyle=orthogonalEdgeStyle;rounded=0;orthogonalLoop=1;jettySize=auto;html=1;" edge="1" parent="1" source="m9NPIkg8LEaH-LfBP8oI-5" target="m9NPIkg8LEaH-LfBP8oI-7">
          <mxGeometry relative="1" as="geometry">
            <mxPoint x="410" y="500" as="targetPoint" />
          </mxGeometry>
        </mxCell>
        <mxCell id="m9NPIkg8LEaH-LfBP8oI-5" value="Введення значення: x" style="rounded=0;whiteSpace=wrap;html=1;" vertex="1" parent="1">
          <mxGeometry x="320" y="340" width="180" height="100" as="geometry" />
        </mxCell>
        <mxCell id="m9NPIkg8LEaH-LfBP8oI-8" style="edgeStyle=orthogonalEdgeStyle;rounded=0;orthogonalLoop=1;jettySize=auto;html=1;" edge="1" parent="1" source="m9NPIkg8LEaH-LfBP8oI-7" target="m9NPIkg8LEaH-LfBP8oI-9">
          <mxGeometry relative="1" as="geometry">
            <mxPoint x="550" y="500" as="targetPoint" />
          </mxGeometry>
        </mxCell>
        <mxCell id="m9NPIkg8LEaH-LfBP8oI-15" style="edgeStyle=orthogonalEdgeStyle;rounded=0;orthogonalLoop=1;jettySize=auto;html=1;" edge="1" parent="1" source="m9NPIkg8LEaH-LfBP8oI-7" target="m9NPIkg8LEaH-LfBP8oI-16">
          <mxGeometry relative="1" as="geometry">
            <mxPoint x="410" y="670" as="targetPoint" />
          </mxGeometry>
        </mxCell>
        <mxCell id="m9NPIkg8LEaH-LfBP8oI-7" value="Ініціалізація змінних:" style="rounded=0;whiteSpace=wrap;html=1;" vertex="1" parent="1">
          <mxGeometry x="350" y="470" width="120" height="60" as="geometry" />
        </mxCell>
        <mxCell id="m9NPIkg8LEaH-LfBP8oI-11" style="edgeStyle=orthogonalEdgeStyle;rounded=0;orthogonalLoop=1;jettySize=auto;html=1;" edge="1" parent="1" source="m9NPIkg8LEaH-LfBP8oI-9" target="m9NPIkg8LEaH-LfBP8oI-12">
          <mxGeometry relative="1" as="geometry">
            <mxPoint x="540" y="600" as="targetPoint" />
          </mxGeometry>
        </mxCell>
        <mxCell id="m9NPIkg8LEaH-LfBP8oI-13" style="edgeStyle=orthogonalEdgeStyle;rounded=0;orthogonalLoop=1;jettySize=auto;html=1;" edge="1" parent="1" source="m9NPIkg8LEaH-LfBP8oI-9" target="m9NPIkg8LEaH-LfBP8oI-14">
          <mxGeometry relative="1" as="geometry">
            <mxPoint x="660" y="580" as="targetPoint" />
          </mxGeometry>
        </mxCell>
        <mxCell id="m9NPIkg8LEaH-LfBP8oI-9" value="Ініціалізація самого виразу&amp;nbsp;" style="rounded=0;whiteSpace=wrap;html=1;" vertex="1" parent="1">
          <mxGeometry x="540" y="470" width="120" height="60" as="geometry" />
        </mxCell>
        <mxCell id="m9NPIkg8LEaH-LfBP8oI-12" value="Який знак" style="rounded=0;whiteSpace=wrap;html=1;" vertex="1" parent="1">
          <mxGeometry x="470" y="560" width="120" height="60" as="geometry" />
        </mxCell>
        <mxCell id="m9NPIkg8LEaH-LfBP8oI-14" value="Значення: x" style="rounded=0;whiteSpace=wrap;html=1;" vertex="1" parent="1">
          <mxGeometry x="610" y="560" width="120" height="60" as="geometry" />
        </mxCell>
        <mxCell id="m9NPIkg8LEaH-LfBP8oI-17" style="edgeStyle=orthogonalEdgeStyle;rounded=0;orthogonalLoop=1;jettySize=auto;html=1;" edge="1" parent="1" source="m9NPIkg8LEaH-LfBP8oI-16" target="m9NPIkg8LEaH-LfBP8oI-18">
          <mxGeometry relative="1" as="geometry">
            <mxPoint x="410" y="760" as="targetPoint" />
          </mxGeometry>
        </mxCell>
        <mxCell id="m9NPIkg8LEaH-LfBP8oI-16" value="Программа рахує" style="rounded=0;whiteSpace=wrap;html=1;" vertex="1" parent="1">
          <mxGeometry x="350" y="640" width="120" height="60" as="geometry" />
        </mxCell>
        <mxCell id="m9NPIkg8LEaH-LfBP8oI-18" value="ВІдповідь" style="rounded=0;whiteSpace=wrap;html=1;" vertex="1" parent="1">
          <mxGeometry x="350" y="730" width="120" height="60" as="geometry" />
        </mxCell>
      </root>
    </mxGraphModel>
  </diagram>
</mxfile>
